<svg xmlns="http://www.w3.org/2000/svg" width="177.894" height="64.86" viewBox="0 0 177.894 64.86"><defs><style>.a{fill:#fff;}</style></defs><g transform="translate(-95.132 -5306.017)"><path class="a" d="M165.379,5325.431l19.25-19.415,8.13,8.048-19.332,19.415Z"/><path class="a" d="M185.292,5345.345l-8.215-8.3c2.656-13.276,12.114-7.634,17.176-21.656l8.463,8.13c-5.062,14.272-13.939,7.967-17.424,21.823"/><path class="a" d="M95.132,5370.616h3.031v-5.736h1.278c3.247,0,5.823-1.277,5.823-4.806,0-3.615-3.009-4.568-6.3-4.568H95.132Zm3.031-12.729h1.061c1.558,0,2.879.606,2.879,2.359s-1.364,2.253-2.879,2.253H98.163Z"/><path class="a" d="M109.483,5364.771c0-1.666.909-3.312,2.792-3.312,1.906,0,2.815,1.6,2.815,3.312,0,1.862-.584,3.854-2.815,3.854-2.207,0-2.792-2.014-2.792-3.854m-3.031.347a5.835,5.835,0,0,0,11.668,0,5.834,5.834,0,1,0-11.668,0"/><path class="a" d="M120.457,5370.617h2.9v-4.092c0-1.6,0-4.547,2.359-4.547a2.939,2.939,0,0,1,1.3.24v-2.924a3.2,3.2,0,0,0-.888-.086,3.416,3.416,0,0,0-3.053,2.792h-.043v-2.533h-2.576Z"/><path class="a" d="M129.763,5367.261a3.278,3.278,0,0,0,3.529,3.615,7.658,7.658,0,0,0,2.144-.259l-.087-2.3a2.586,2.586,0,0,1-1.321.3c-1.1,0-1.364-.888-1.364-1.841v-5.2h2.577v-2.121h-2.577v-3.161l-2.9.93v2.231H127.62v2.121h2.143Z"/><path class="a" d="M150.67,5370.617h2.814V5354.38h-2.9v6.386h-.043a3.96,3.96,0,0,0-3.334-1.559c-3.421,0-4.676,2.729-4.676,5.8,0,3.053,1.255,5.867,4.676,5.867a4.142,4.142,0,0,0,3.422-1.516h.042Zm-5.109-5.607c0-1.494.52-3.551,2.4-3.551,1.862,0,2.6,1.992,2.6,3.551,0,1.58-.628,3.616-2.556,3.616-1.9,0-2.446-2.079-2.446-3.616"/><path class="a" d="M165.41,5367.629a7.507,7.507,0,0,1-3.7,1.127,2.915,2.915,0,0,1-3.182-2.816h7.706c0-3.9-1.168-6.733-5.3-6.733-3.464,0-5.175,2.664-5.175,5.89,0,3.659,2.144,5.78,5.824,5.78a7.642,7.642,0,0,0,3.831-.888Zm-6.883-3.68a2.526,2.526,0,0,1,2.576-2.619c1.623,0,2.273,1.211,2.359,2.619Z"/><path class="a" d="M176.533,5370.616h5.283c1.9,0,5.325-.561,5.325-4.372a3.509,3.509,0,0,0-3.463-3.442v-.044a3.372,3.372,0,0,0,3.009-3.377c0-3.312-2.923-3.875-4.871-3.875h-5.283Zm3.032-12.729h1.168c1.386,0,2.923.13,2.923,1.884,0,1.558-1.58,1.84-2.858,1.84h-1.233Zm0,5.975h1.428c1.516,0,3.118.3,3.118,2.274,0,1.753-1.71,2.1-3.118,2.1h-1.428Z"/><path class="a" d="M191.556,5367.391c0-1.71,1.927-1.927,3.225-1.927h1.256a3.69,3.69,0,0,1-.606,2.295,2.464,2.464,0,0,1-2.035,1c-1.039,0-1.84-.411-1.84-1.364m-1.472-4.849a5.837,5.837,0,0,1,3.442-1.213c1.71,0,2.511.607,2.511,2.4h-1.6a8.828,8.828,0,0,0-3.746.65,3.277,3.277,0,0,0-1.9,3.182c0,2.121,1.927,3.312,3.9,3.312a3.983,3.983,0,0,0,3.442-1.926h.043a13.708,13.708,0,0,0,.13,1.667h2.555c-.065-.865-.109-1.645-.13-2.49-.022-.823-.044-1.666-.044-2.792v-1.43c0-3.29-1.406-4.7-4.8-4.7a10.015,10.015,0,0,0-3.876.843Z"/><path class="a" d="M201.6,5370.617h2.9v-4.092c0-1.6,0-4.547,2.359-4.547a2.939,2.939,0,0,1,1.3.24v-2.924a3.2,3.2,0,0,0-.888-.086,3.416,3.416,0,0,0-3.053,2.792h-.043v-2.533H201.6Z"/><path class="a" d="M217.053,5359.576a9.429,9.429,0,0,0-2.814-.368c-3.486,0-5.39,2.554-5.39,5.78,0,3.4,1.839,5.888,5.5,5.888a9.442,9.442,0,0,0,2.9-.367l-.13-2.4a6.135,6.135,0,0,1-2.229.52c-2.035,0-3.01-1.58-3.01-3.637,0-2.1,1.148-3.529,2.944-3.529a4.371,4.371,0,0,1,1.97.411Z"/><path class="a" d="M228.113,5367.629a7.507,7.507,0,0,1-3.7,1.127,2.914,2.914,0,0,1-3.181-2.816h7.706c0-3.9-1.168-6.733-5.3-6.733-3.464,0-5.175,2.664-5.175,5.89,0,3.659,2.144,5.78,5.824,5.78a7.642,7.642,0,0,0,3.831-.888Zm-6.883-3.68a2.526,2.526,0,0,1,2.576-2.619c1.623,0,2.273,1.211,2.359,2.619Z"/><rect class="a" width="2.901" height="16.237" transform="translate(231.272 5354.379)"/><path class="a" d="M239.539,5364.771c0-1.666.909-3.312,2.792-3.312,1.906,0,2.816,1.6,2.816,3.312,0,1.862-.585,3.854-2.816,3.854-2.207,0-2.792-2.014-2.792-3.854m-3.031.347a5.835,5.835,0,0,0,11.668,0,5.834,5.834,0,1,0-11.668,0"/><path class="a" d="M250.448,5370.617h2.9v-5.455c0-1.429.455-3.7,2.554-3.7,1.863,0,1.884,1.839,1.884,3.2v5.953h2.9v-7.036c0-2.511-1.148-4.373-3.788-4.373a4.166,4.166,0,0,0-3.66,1.775H253.2v-1.516h-2.749Z"/><path class="a" d="M265.731,5367.391c0-1.71,1.926-1.927,3.224-1.927h1.256a3.69,3.69,0,0,1-.606,2.295,2.462,2.462,0,0,1-2.035,1c-1.039,0-1.839-.411-1.839-1.364m-1.473-4.849a5.837,5.837,0,0,1,3.442-1.213c1.71,0,2.511.607,2.511,2.4h-1.6a8.825,8.825,0,0,0-3.746.65,3.276,3.276,0,0,0-1.9,3.182c0,2.121,1.926,3.312,3.9,3.312a3.983,3.983,0,0,0,3.442-1.926h.043a13.712,13.712,0,0,0,.13,1.667h2.555c-.065-.865-.109-1.645-.13-2.49-.022-.823-.044-1.666-.044-2.792v-1.43c0-3.29-1.406-4.7-4.8-4.7a10.015,10.015,0,0,0-3.876.843Z"/></g></svg>