<svg xmlns="http://www.w3.org/2000/svg" width="146.987" height="53.592" viewBox="0 0 146.987 53.592"><defs><style>.a{fill:#4d5357;}.b{fill:#0073cf;}</style></defs><g transform="translate(-34.292 -28.466)"><path class="a" d="M92.334,44.508l15.905-16.042,6.718,6.65L98.984,51.158Z"/><path class="b" d="M108.787,60.961,102,54.106c2.194-10.969,10.009-6.307,14.191-17.893l6.993,6.718c-4.182,11.792-11.517,6.582-14.4,18.03"/><path class="a" d="M34.292,81.842h2.5V77.1h1.056c2.683,0,4.811-1.056,4.811-3.972,0-2.986-2.486-3.774-5.2-3.774H34.292Zm2.5-10.517h.877c1.287,0,2.378.5,2.378,1.949s-1.126,1.861-2.378,1.861H36.8Z"/><path class="a" d="M46.15,77.013c0-1.377.75-2.737,2.307-2.737,1.574,0,2.326,1.324,2.326,2.737,0,1.539-.483,3.184-2.326,3.184-1.824,0-2.307-1.664-2.307-3.184m-2.505.286a4.547,4.547,0,0,0,4.812,4.758A4.551,4.551,0,0,0,53.286,77.3a4.821,4.821,0,1,0-9.641,0"/><path class="a" d="M55.217,81.843h2.4V78.462c0-1.323,0-3.757,1.949-3.757a2.431,2.431,0,0,1,1.074.2V72.487a2.674,2.674,0,0,0-.733-.07,2.821,2.821,0,0,0-2.523,2.306h-.035V72.63H55.217Z"/><path class="a" d="M62.906,79.07a2.709,2.709,0,0,0,2.916,2.987,6.317,6.317,0,0,0,1.771-.214l-.072-1.9a2.137,2.137,0,0,1-1.091.25c-.912,0-1.127-.734-1.127-1.521V74.384h2.129V72.631H65.3V70.019l-2.4.769v1.843H61.135v1.753h1.771Z"/><path class="a" d="M80.181,81.843h2.325V68.427h-2.4V73.7h-.035a3.274,3.274,0,0,0-2.755-1.287c-2.827,0-3.864,2.254-3.864,4.794,0,2.523,1.037,4.848,3.864,4.848a3.422,3.422,0,0,0,2.827-1.253h.035ZM75.959,77.21c0-1.234.43-2.934,1.986-2.934,1.538,0,2.147,1.646,2.147,2.934,0,1.306-.519,2.988-2.111,2.988-1.574,0-2.022-1.718-2.022-2.988"/><path class="a" d="M92.36,79.374a6.205,6.205,0,0,1-3.058.931,2.409,2.409,0,0,1-2.63-2.326H93.04c0-3.22-.965-5.563-4.382-5.563-2.862,0-4.275,2.2-4.275,4.866,0,3.023,1.771,4.776,4.811,4.776a6.323,6.323,0,0,0,3.166-.734Zm-5.688-3.041A2.088,2.088,0,0,1,88.8,74.169c1.341,0,1.878,1,1.949,2.164Z"/><path class="a" d="M101.551,81.842h4.364c1.575,0,4.4-.464,4.4-3.612a2.9,2.9,0,0,0-2.861-2.844v-.037a2.786,2.786,0,0,0,2.487-2.79c0-2.737-2.416-3.2-4.026-3.2h-4.364Zm2.5-10.517h.966c1.145,0,2.415.107,2.415,1.556,0,1.288-1.306,1.521-2.362,1.521h-1.019Zm0,4.937h1.181c1.252,0,2.576.25,2.576,1.878,0,1.449-1.413,1.735-2.576,1.735h-1.181Z"/><path class="a" d="M113.964,79.178c0-1.414,1.591-1.593,2.664-1.593h1.038a3.053,3.053,0,0,1-.5,1.9,2.037,2.037,0,0,1-1.682.822c-.858,0-1.519-.339-1.519-1.126m-1.217-4.007a4.823,4.823,0,0,1,2.844-1c1.413,0,2.075.5,2.075,1.985h-1.323a7.306,7.306,0,0,0-3.1.537,2.709,2.709,0,0,0-1.573,2.63c0,1.752,1.592,2.736,3.22,2.736a3.29,3.29,0,0,0,2.844-1.592h.035a11.325,11.325,0,0,0,.107,1.378h2.112c-.054-.715-.09-1.359-.108-2.057-.018-.68-.036-1.377-.036-2.307V76.3c0-2.718-1.162-3.881-3.971-3.881a8.271,8.271,0,0,0-3.2.7Z"/><path class="a" d="M122.261,81.843h2.4V78.462c0-1.323,0-3.757,1.95-3.757a2.434,2.434,0,0,1,1.074.2V72.487a2.684,2.684,0,0,0-.734-.07,2.823,2.823,0,0,0-2.523,2.306h-.035V72.63h-2.129Z"/><path class="a" d="M135.031,72.72a7.828,7.828,0,0,0-2.325-.3c-2.881,0-4.454,2.111-4.454,4.776,0,2.809,1.52,4.865,4.543,4.865a7.8,7.8,0,0,0,2.4-.3l-.107-1.985a5.087,5.087,0,0,1-1.842.429c-1.682,0-2.488-1.306-2.488-3,0-1.735.949-2.916,2.433-2.916a3.613,3.613,0,0,1,1.628.34Z"/><path class="a" d="M144.169,79.374a6.205,6.205,0,0,1-3.058.931,2.408,2.408,0,0,1-2.629-2.326h6.367c0-3.22-.965-5.563-4.382-5.563-2.862,0-4.275,2.2-4.275,4.866,0,3.023,1.771,4.776,4.811,4.776a6.323,6.323,0,0,0,3.166-.734Zm-5.687-3.041a2.087,2.087,0,0,1,2.128-2.164c1.341,0,1.878,1,1.949,2.164Z"/><rect class="a" width="2.397" height="13.416" transform="translate(146.779 68.427)"/><path class="a" d="M153.61,77.013c0-1.377.751-2.737,2.307-2.737,1.574,0,2.326,1.324,2.326,2.737,0,1.539-.483,3.184-2.326,3.184-1.824,0-2.307-1.664-2.307-3.184m-2.5.286a4.821,4.821,0,0,0,9.641,0,4.821,4.821,0,1,0-9.641,0"/><path class="a" d="M162.624,81.843h2.4V77.335c0-1.18.376-3.058,2.11-3.058,1.539,0,1.556,1.519,1.556,2.647v4.919h2.4V76.029c0-2.075-.948-3.612-3.129-3.612a3.441,3.441,0,0,0-3.024,1.466H164.9V72.63h-2.271Z"/><path class="a" d="M175.251,79.178c0-1.414,1.592-1.593,2.665-1.593h1.037a3.053,3.053,0,0,1-.5,1.9,2.039,2.039,0,0,1-1.682.822c-.858,0-1.52-.339-1.52-1.126m-1.217-4.007a4.825,4.825,0,0,1,2.844-1c1.413,0,2.075.5,2.075,1.985H177.63a7.3,7.3,0,0,0-3.1.537,2.708,2.708,0,0,0-1.574,2.63c0,1.752,1.592,2.736,3.22,2.736a3.289,3.289,0,0,0,2.844-1.592h.035a11.562,11.562,0,0,0,.108,1.378h2.111c-.053-.715-.09-1.359-.107-2.057-.018-.68-.037-1.377-.037-2.307V76.3c0-2.718-1.162-3.881-3.97-3.881a8.271,8.271,0,0,0-3.2.7Z"/><rect class="a" width="2.397" height="13.416" transform="translate(146.779 68.427)"/></g></svg>